<svg xmlns="http://www.w3.org/2000/svg" xmlns:xlink="http://www.w3.org/1999/xlink">
	<symbol id="apple" fill="none" viewBox="0 0 36 36"><g fill="currentColor"><path d="M26.707 18.63c-.037-3.998 3.358-5.943 3.513-6.033-1.922-2.733-4.902-3.107-5.95-3.137-2.502-.256-4.93 1.46-6.205 1.46-1.3 0-3.263-1.435-5.38-1.393-2.722.041-5.27 1.579-6.666 3.965-2.884 4.867-.733 12.019 2.029 15.953 1.382 1.926 2.996 4.077 5.11 4.002 2.067-.084 2.84-1.286 5.335-1.286 2.472 0 3.197 1.286 5.353 1.237 2.219-.035 3.616-1.935 4.95-3.879 1.596-2.208 2.237-4.383 2.263-4.494-.052-.018-4.31-1.602-4.352-6.394ZM22.636 6.873c1.112-1.356 1.873-3.201 1.661-5.073-1.61.07-3.622 1.086-4.781 2.412-1.026 1.168-1.942 3.084-1.705 4.885 1.808.132 3.664-.89 4.825-2.224Z"/></g></symbol><symbol id="clock" fill="none" viewBox="0 0 20 20"><g stroke="currentColor" stroke-linecap="round" stroke-linejoin="round" stroke-width="1.5" clip-path="url(#a)"><path d="M10 5v5h5"/><path d="M10 18.333a8.333 8.333 0 1 0 0-16.666 8.333 8.333 0 0 0 0 16.666Z"/></g><defs><clipPath id="a"><path d="M0 0h20v20H0z"/></clipPath></defs></symbol><symbol id="facebook" fill="none" viewBox="0 0 24 24"><path stroke="currentColor" stroke-linecap="round" stroke-linejoin="round" d="M17 2h-3a5 5 0 0 0-5 5v3H6v4h3v8h4v-8h3l1-4h-4V7a1 1 0 0 1 1-1h3V2Z"/></symbol><symbol id="googleplay" fill="none" viewBox="0 0 36 36"><g fill="currentColor"><path d="M3.756 3.203c-.363.37-.572.946-.572 1.692v26.604c0 .746.21 1.322.572 1.692l.09.081 15.29-14.902v-.352L3.846 3.116l-.09.087ZM26.078 23.34l-5.092-4.97v-.352l5.098-4.97.114.065 6.036 3.349c1.723.95 1.723 2.514 0 3.47l-6.036 3.343-.12.065ZM25.273 24.2l-5.211-5.08-15.38 14.997c.572.586 1.505.657 2.566.07l18.025-9.986ZM25.273 12.188 7.248 2.2c-1.061-.58-1.994-.51-2.566.077l15.38 14.99 5.211-5.08Z"/></g></symbol><symbol id="instagram" fill="none" viewBox="0 0 24 24"><g stroke="currentColor"><path stroke-linecap="round" stroke-linejoin="round" d="M12 16a4 4 0 1 0 0-8 4 4 0 0 0 0 8Z"/><path d="M3 16V8a5 5 0 0 1 5-5h8a5 5 0 0 1 5 5v8a5 5 0 0 1-5 5H8a5 5 0 0 1-5-5Z"/></g></symbol><symbol id="phone" fill="none" viewBox="0 0 20 20"><path stroke="currentColor" stroke-linecap="round" stroke-linejoin="round" stroke-width="1.5" d="m15.098 12.252-3.432.665c-2.318-1.164-3.75-2.5-4.583-4.584l.642-3.441-1.213-3.225H3.729c-1.127 0-2.014.933-1.828 2.045.398 2.373 1.471 6.327 4.349 9.205 3.023 3.023 7.316 4.415 9.888 5.012 1.161.27 2.195-.638 2.195-1.83v-2.615l-3.235-1.232Z"/></symbol><symbol id="pinalt" fill="none" viewBox="0 0 20 20"><g stroke="currentColor" stroke-width="1.5"><path d="M16.666 8.333c0 3.682-6.666 10-6.666 10s-6.667-6.318-6.667-10a6.667 6.667 0 1 1 13.333 0Z"/><path fill="currentColor" stroke-linecap="round" stroke-linejoin="round" d="M10 9.167A.833.833 0 1 0 10 7.5a.833.833 0 0 0 0 1.667Z"/></g></symbol><symbol id="twitter" fill="none" viewBox="0 0 24 24"><path stroke="currentColor" stroke-linecap="round" stroke-linejoin="round" d="M23 3.01s-2.018 1.192-3.14 1.53a4.48 4.48 0 0 0-7.86 3v1a10.66 10.66 0 0 1-9-4.53s-4 9 5 13a11.64 11.64 0 0 1-7 2c9 5 20 0 20-11.5 0-.278-.028-.556-.08-.83C21.94 5.674 23 3.01 23 3.01Z"/></symbol><symbol id="arrow-left" fill="none" viewBox="0 0 24 24"><path stroke="currentColor" stroke-linecap="round" stroke-linejoin="round" d="M18.5 12H6m0 0 6-6m-6 6 6 6"/></symbol><symbol id="arrow-right" fill="none" viewBox="0 0 24 24"><path stroke="currentColor" stroke-linecap="round" stroke-linejoin="round" d="M6 12h12.5m0 0-6-6m6 6-6 6"/></symbol><symbol id="refresh" fill="none" viewBox="0 0 24 24"><g stroke="currentColor" stroke-linecap="round" stroke-linejoin="round"><path d="M21.888 13.5C21.164 18.311 17.013 22 12 22 6.477 22 2 17.523 2 12S6.477 2 12 2c4.1 0 7.625 2.468 9.168 6"/><path d="M17 8h4.4a.6.6 0 0 0 .6-.6V3"/></g></symbol>
</svg>
